<svg width="16" height="17" viewBox="0 0 16 17" fill="none" xmlns="http://www.w3.org/2000/svg">
<path fill-rule="evenodd" clip-rule="evenodd" d="M5 0.312012H11C13.761 0.312012 16 2.55101 16 5.31201V11.312C16 14.073 13.761 16.312 11 16.312H5C2.239 16.312 0 14.073 0 11.312V5.31201C0 2.55101 2.239 0.312012 5 0.312012ZM11 14.812C12.93 14.812 14.5 13.242 14.5 11.312V5.31201C14.5 3.38201 12.93 1.81201 11 1.81201H5C3.07 1.81201 1.5 3.38201 1.5 5.31201V11.312C1.5 13.242 3.07 14.812 5 14.812H11ZM4 8.31201C4 6.10301 5.791 4.31201 8 4.31201C10.209 4.31201 12 6.10301 12 8.31201C12 10.521 10.209 12.312 8 12.312C5.791 12.312 4 10.521 4 8.31201ZM5.5 8.31201C5.5 9.69001 6.622 10.812 8 10.812C9.378 10.812 10.5 9.69001 10.5 8.31201C10.5 6.93301 9.378 5.81201 8 5.81201C6.622 5.81201 5.5 6.93301 5.5 8.31201ZM12.833 4.01202C12.833 4.30638 12.5944 4.54502 12.3 4.54502C12.0057 4.54502 11.767 4.30638 11.767 4.01202C11.767 3.71765 12.0057 3.47902 12.3 3.47902C12.5944 3.47902 12.833 3.71765 12.833 4.01202Z" fill="#E3E7EC"/>
</svg>
