<svg width="16" height="17" viewBox="0 0 16 17" fill="none" xmlns="http://www.w3.org/2000/svg">
<path fill-rule="evenodd" clip-rule="evenodd" d="M3.5 2.06201C3.5 3.02851 2.7165 3.81201 1.75 3.81201C0.783502 3.81201 0 3.02851 0 2.06201C0 1.09551 0.783502 0.312012 1.75 0.312012C2.7165 0.312012 3.5 1.09551 3.5 2.06201ZM0 5.31201H3.578V16.312H0V5.31201ZM13.2998 5.43321C13.2954 5.43174 13.2909 5.43026 13.2864 5.42879C13.2616 5.42057 13.2367 5.41234 13.21 5.40501C13.162 5.39401 13.114 5.38501 13.065 5.37701C12.875 5.33901 12.667 5.31201 12.423 5.31201C10.337 5.31201 9.014 6.82901 8.578 7.41501V5.31201H5V16.312H8.578V10.312C8.578 10.312 11.282 6.54601 12.423 9.31201V16.312H16V8.88901C16 7.22701 14.861 5.84201 13.324 5.44101C13.3159 5.43845 13.3078 5.43583 13.2998 5.43321Z" fill="#E3E7EC"/>
</svg>
