<svg width="94" height="92" viewBox="0 0 94 92" fill="none" xmlns="http://www.w3.org/2000/svg">
<path d="M92.2421 87.0915L78.7143 73.6471V21.9248L72.3255 10.1748C71.8542 9.27901 71.1471 8.52896 70.2806 8.00571C69.414 7.48247 68.421 7.20591 67.4088 7.20591C66.3965 7.20591 65.4035 7.48247 64.537 8.00571C63.6705 8.52896 62.9634 9.27901 62.4921 10.1748L56.4921 21.9526V51.536L5.68657 0.980402C5.29804 0.588654 4.80165 0.321486 4.26068 0.212959C3.71972 0.104432 3.15869 0.159464 2.64912 0.371038C2.13956 0.582613 1.70454 0.941144 1.39954 1.40092C1.09453 1.8607 0.933362 2.40089 0.93657 2.95262V25.3971H6.96435V29.8415H0.93657V47.6193H6.96435V52.0637H0.93657V70.536H6.96435V74.9804H0.93657V89.0637C0.93657 89.8004 1.22923 90.507 1.75016 91.0279C2.2711 91.5489 2.97764 91.8415 3.71435 91.8415H90.2699C90.8216 91.8447 91.3618 91.6835 91.8216 91.3785C92.2814 91.0735 92.6399 90.6385 92.8515 90.129C93.0631 89.6194 93.1181 89.0584 93.0096 88.5174C92.901 87.9764 92.6339 87.48 92.2421 87.0915ZM23.1588 69.8415V44.6748L48.3532 69.8415H23.1588ZM73.1588 75.7026H62.0477V68.9526H73.1588V75.7026ZM73.1588 64.5915H62.0477V23.3137L67.4366 12.8415L73.1588 23.3415V64.5915Z" fill="#F1F1F1"/>
</svg>
