<svg width="80" height="80" viewBox="0 0 80 80" fill="none" xmlns="http://www.w3.org/2000/svg">
<path d="M75.9375 7.96875H59.5312V1.71875C59.5312 1.28906 59.1797 0.9375 58.75 0.9375H53.2812C52.8516 0.9375 52.5 1.28906 52.5 1.71875V7.96875H27.5V1.71875C27.5 1.28906 27.1484 0.9375 26.7188 0.9375H21.25C20.8203 0.9375 20.4688 1.28906 20.4688 1.71875V7.96875H4.0625C2.33398 7.96875 0.9375 9.36523 0.9375 11.0938V75.9375C0.9375 77.666 2.33398 79.0625 4.0625 79.0625H75.9375C77.666 79.0625 79.0625 77.666 79.0625 75.9375V11.0938C79.0625 9.36523 77.666 7.96875 75.9375 7.96875ZM57.8223 32.2559L37.0605 60.8398C36.9146 61.0396 36.7235 61.2021 36.5029 61.3142C36.2824 61.4262 36.0384 61.4846 35.791 61.4846C35.5436 61.4846 35.2997 61.4262 35.0791 61.3142C34.8585 61.2021 34.6674 61.0396 34.5215 60.8398L22.1777 43.8477C21.8066 43.3301 22.1777 42.6074 22.8125 42.6074H28.2031C28.7012 42.6074 29.1797 42.8516 29.4727 43.252L35.791 51.9434L50.5273 31.6504C50.8203 31.25 51.2891 31.0059 51.7969 31.0059H57.1875C57.8223 31.0156 58.1934 31.7383 57.8223 32.2559Z" fill="#F1F1F1"/>
</svg>
