<svg width="80" height="100" viewBox="0 0 80 100" fill="none" xmlns="http://www.w3.org/2000/svg">
<path d="M46.259 0.78125L45.5258 10.0098H36.9238V40.7445H35.9637C30.2035 40.7445 24.9758 44.1148 22.5988 49.3617L0.00976562 99.2188H30.7715L32.752 92.6203C47.0656 88.2598 50.8266 74.6094 50.8266 74.6094H70.7617V67.5312L74.8746 67.8582L79.9902 3.46133L46.259 0.78125ZM67.6855 65.0805C64.6555 65.8996 62.3352 68.4125 61.7961 71.5332H44.309C43.1539 77.441 38.7832 82.816 32.8934 85.2219C32.7031 85.2996 32.5059 85.3363 32.3121 85.3363C31.7059 85.3363 31.1312 84.9754 30.8875 84.3797C30.5664 83.5934 30.9434 82.6957 31.7297 82.3742C37.5039 80.0156 41.5367 74.2926 41.5367 68.457C41.5367 68.4543 41.5375 66.9187 41.5375 66.9187H57.175C59.4984 66.9187 61.4906 65.1008 61.532 62.7777C61.5742 60.4121 59.6707 58.4824 57.3145 58.4785L29.6168 58.4594C28.7676 58.4594 28.0785 57.7707 28.0785 56.9211C28.0785 56.0715 28.7672 55.3828 29.6168 55.3828H39.9996V19.2328C43.1242 18.5953 45.5809 16.1715 46.2887 13.0859H61.518C62.2176 16.1445 64.632 18.5316 67.6855 19.2062V65.0805ZM72.5625 58.1152C71.9344 58.2328 71.3324 58.4262 70.7617 58.6801V10.0098H49.6688C52.3469 9.30352 54.5105 7.26016 55.3508 4.58945L70.532 5.7957C70.9875 8.9 73.2047 11.4707 76.1953 12.3848L72.5625 58.1152ZM64.6859 41.9547C64.6969 36.0652 59.9941 31.1094 53.8687 31.098C47.9793 31.0871 43.0227 36.0254 43.0121 41.9152C43.0012 47.8047 47.7039 52.7605 53.8293 52.7719C59.7188 52.7828 64.675 47.8445 64.6859 41.9547ZM47.4867 42.866L45.602 42.8625L45.6059 40.7422L47.2551 40.7453C47.2566 39.8027 47.7301 38.6258 47.9672 37.684L50.3219 38.3953C50.0855 38.866 49.848 39.8078 49.8453 41.2215C49.8434 42.3992 50.3129 43.107 51.0199 43.1086C51.727 43.1102 52.1992 42.4039 52.909 40.7562C53.8555 38.402 54.8 37.2258 56.6848 37.2297C58.3336 37.4684 59.7441 38.8844 60.2125 40.7699L62.0973 40.7734L62.0934 42.8937L60.4441 42.8906C60.4422 43.8332 59.9676 45.7168 59.7309 46.423L57.3762 45.7117C57.8488 45.0059 58.3223 43.5934 58.3246 42.4152C58.327 41.0016 57.8574 40.2941 56.9148 40.2926C56.2082 40.291 55.7359 40.7617 55.0262 42.4094C54.3156 44.5281 53.1348 46.1754 51.25 46.1719C49.3652 46.1676 47.9535 44.9867 47.4867 42.866Z" fill="#F1F1F1"/>
</svg>
